# xmcd
#
# Track frame offsets:
#	150
#	17134
#	33712
#	50888
#	67388
#	84983
#	105480
#	124175
#	139629
#	160473
#
# Disc length: 2369 seconds
#
# Revision: 1
# Processed by: cddbd v1.5.1PL0 Copyright (c) Steve Scherf et al.
# Submitted via: audiograbber 1.82.02
#
DISCID=90093f0a
DTITLE=Pops Walker - Bootleg Blues
DYEAR=2004
DGENRE=Blues
TTITLE0=Sweet Well Water
TTITLE1='Coustic Blues
TTITLE2=Rock Me
TTITLE3=Wrap Your Arms Around Me Tonight
TTITLE4=My Back's Against The Wall
TTITLE5=Here We Go Again
TTITLE6=Lucas T.
TTITLE7=Honey Lay Down Your Problems
TTITLE8=Love Can Be So Cruel
TTITLE9=Wild Blues Yonder
EXTD=An offical "bootleg" created by Pops and his wife Bobbi.   Consist of trac
EXTD=ks originally on "Cuttin' In Line At The Karmic Buffet" and "Milepost 5". 
EXTD=Three tracks were previously released on the album "Stories Untold" by Si
EXTD=mple Enough, a duo of Pops and Hubert Sakai.
EXTT0=
EXTT1=
EXTT2=
EXTT3=
EXTT4=
EXTT5=
EXTT6=
EXTT7=
EXTT8=
EXTT9=
PLAYORDER=
